<?xml version="1.0" encoding="utf-8"?>
<!-- Generator: Adobe Illustrator 24.0.1, SVG Export Plug-In . SVG Version: 6.00 Build 0)  -->
<svg version="1.1" id="Layer_1" xmlns="http://www.w3.org/2000/svg" xmlns:xlink="http://www.w3.org/1999/xlink" x="0px" y="0px"
	 viewBox="0 0 400 373" style="enable-background:new 0 0 400 373;" xml:space="preserve">
<style type="text/css">
	.st0{fill:#2A09FF;}
</style>
<path class="st0" d="M291.5,51.2c-23.5,0-46.2,8.5-63.9,23.9c-0.4,0.4-0.8,0.7-1.2,1.1l-20.1,21.1l-68.2,65.4
	C125,171,121,171,107.3,171c-31.1,0-56.7-23.5-60.2-53.6l63.6-63.6l39.4,39.4c6.9,6.9,18.1,6.9,25,0c6.9-6.9,6.9-18.1,0-25
	l-51.9-51.9c-6.9-6.9-18.1-6.9-25,0L16.5,97.9c-3.3,3.3-5.2,7.8-5.2,12.5c0,52.9,43.1,96,96,96c18.2,0,29.5-0.7,51.4-14.9
	c0.9-0.6,1.8-1.3,2.6-2.1l66.2-63.4c0.7-0.5,1.4-1.1,2-1.8l1.7-1.8l1-0.9c0.5-0.5,1-1.1,1.5-1.7l17.7-18.5
	c11.2-9.5,25.3-14.7,40-14.7c34.1,0,61.8,27.7,61.8,61.8c0,13.3-4.1,25.9-12,36.5L211.8,319l-58.7-58.7c-6.9-6.9-18.1-6.9-25,0
	c-6.9,6.9-6.9,18.1,0,25l71.4,71.4c3.3,3.3,7.8,5.2,12.5,5.2c0.1,0,0.1,0,0.2,0c4.7,0,9.3-2,12.6-5.4l142.8-147.9
	c0.5-0.5,0.9-1,1.4-1.6c12.9-17,19.8-37.3,19.8-58.8C388.7,94.8,345.1,51.2,291.5,51.2z"/>
</svg>
